<svg xmlns="http://www.w3.org/2000/svg" width="1200" height="1200"><defs><linearGradient id="b" x2="0" y2="1"><stop stop-color="#2b251d"/><stop offset="1" stop-color="#090806"/></linearGradient></defs><rect width="1200" height="1200" fill="#fff"/><ellipse cx="600" cy="1020" rx="380" ry="40" fill="#6b4613" opacity=".16"/><rect x="210" y="175" width="780" height="580" rx="32" fill="url(#b)" stroke="#9d702d" stroke-width="8"/><rect x="260" y="220" width="680" height="490" rx="20" fill="#11100e" stroke="#c49a4d" stroke-width="4"/><rect x="335" y="300" width="530" height="300" fill="#171411"/><g fill="none" stroke="#d2aa57" stroke-width="12"><path d="M600 345 C520 405 490 500 600 550 C710 500 680 405 600 345Z"/><path d="M600 365 L600 530 M535 430 Q600 390 665 430 M515 480 Q600 440 685 480"/></g><text x="600" y="650" fill="#e3c572" text-anchor="middle" font-family="Georgia,serif" font-size="32" letter-spacing="3">2023 AMERICAN LIBERTY</text><text x="600" y="690" fill="#e3c572" text-anchor="middle" font-family="Arial" font-size="19">HIGH RELIEF GOLD COIN • U.S. MINT</text><rect x="330" y="815" width="540" height="125" rx="12" fill="#15120f" stroke="#b98a35" stroke-width="5"/><text x="600" y="868" fill="#e8ca78" text-anchor="middle" font-family="Georgia,serif" font-size="25">PERSEVERANCE</text><text x="600" y="908" fill="#e8ca78" text-anchor="middle" font-family="Arial" font-size="18">2023 AMERICAN LIBERTY HIGH RELIEF GOLD COIN</text><text x="600" y="1095" text-anchor="middle" font-family="Arial" font-size="24" fill="#765016">GENERATED WHITE-BACKGROUND PRODUCT VIEW • PRESENTATION CASE</text></svg>