<svg xmlns="http://www.w3.org/2000/svg" width="1200" height="1200"><rect width="1200" height="1200" fill="white"/><ellipse cx="600" cy="1020" rx="430" ry="45" fill="#bbb" opacity=".25"/><g transform="translate(270 170)"><rect width="660" height="500" rx="22" fill="#17130f" stroke="#6d4a19" stroke-width="8"/><rect x="32" y="32" width="596" height="436" rx="15" fill="#0e0c09" stroke="#c4973d" stroke-width="3"/><circle cx="330" cy="250" r="115" fill="#bd8b28" opacity=".95"/><g fill="#e4bb59" transform="translate(330 250)"><ellipse cx="0" cy="-105" rx="25" ry="105" transform="rotate(0)"/><ellipse cx="0" cy="-105" rx="25" ry="105" transform="rotate(22.5)"/><ellipse cx="0" cy="-105" rx="25" ry="105" transform="rotate(45)"/><ellipse cx="0" cy="-105" rx="25" ry="105" transform="rotate(67.5)"/><ellipse cx="0" cy="-105" rx="25" ry="105" transform="rotate(90)"/><ellipse cx="0" cy="-105" rx="25" ry="105" transform="rotate(112.5)"/><ellipse cx="0" cy="-105" rx="25" ry="105" transform="rotate(135)"/><ellipse cx="0" cy="-105" rx="25" ry="105" transform="rotate(157.5)"/><ellipse cx="0" cy="-105" rx="25" ry="105" transform="rotate(180)"/><ellipse cx="0" cy="-105" rx="25" ry="105" transform="rotate(202.5)"/><ellipse cx="0" cy="-105" rx="25" ry="105" transform="rotate(225)"/><ellipse cx="0" cy="-105" rx="25" ry="105" transform="rotate(247.5)"/><ellipse cx="0" cy="-105" rx="25" ry="105" transform="rotate(270)"/><ellipse cx="0" cy="-105" rx="25" ry="105" transform="rotate(292.5)"/><ellipse cx="0" cy="-105" rx="25" ry="105" transform="rotate(315)"/><ellipse cx="0" cy="-105" rx="25" ry="105" transform="rotate(337.5)"/></g><circle cx="330" cy="250" r="42" fill="#8a5a13"/><text x="330" y="405" fill="#e5c46b" text-anchor="middle" font-family="Georgia" font-size="27">AMERICAN LIBERTY</text></g><g transform="translate(400 735)"><rect width="400" height="150" rx="10" fill="#15110d" stroke="#c3973c" stroke-width="5"/><text x="200" y="60" fill="#e7c66f" text-anchor="middle" font-family="Georgia" font-size="23">2025 AMERICAN LIBERTY</text><text x="200" y="100" fill="#e7c66f" text-anchor="middle" font-family="Arial" font-size="18">HIGH RELIEF GOLD COIN</text></g><text x="600" y="1080" text-anchor="middle" font-family="Arial" font-size="24" fill="#69410e">GENERATED PRODUCT IMAGE • U.S. MINT PRESENTATION CASE</text></svg>