<svg xmlns="http://www.w3.org/2000/svg" width="1200" height="1200" viewBox="0 0 1200 1200"><title>2025 American Liberty High Relief Gold Coin — Obverse</title><rect width="1200" height="1200" fill="white"/><circle cx="600" cy="600" r="510" fill="#c99025" stroke="#5d3b0c" stroke-width="18"/><circle cx="600" cy="600" r="480" fill="#e0ad48" stroke="#8a5a16" stroke-width="8"/><g transform="translate(600 600)"><g stroke="#7a4e12" stroke-width="10" fill="#d7a23d"><ellipse cx="0" cy="-205" rx="62" ry="190"/><ellipse cx="110" cy="-170" rx="62" ry="190" transform="rotate(25 110 -170)"/><ellipse cx="205" cy="-90" rx="62" ry="190" transform="rotate(50 205 -90)"/><ellipse cx="240" cy="20" rx="62" ry="190" transform="rotate(75 240 20)"/><ellipse cx="205" cy="130" rx="62" ry="190" transform="rotate(110 205 130)"/><ellipse cx="100" cy="195" rx="62" ry="190" transform="rotate(140 100 195)"/><ellipse cx="-10" cy="210" rx="62" ry="190" transform="rotate(170 -10 210)"/><ellipse cx="-120" cy="165" rx="62" ry="190" transform="rotate(200 -120 165)"/><ellipse cx="-205" cy="70" rx="62" ry="190" transform="rotate(230 -205 70)"/><ellipse cx="-225" cy="-40" rx="62" ry="190" transform="rotate(255 -225 -40)"/><ellipse cx="-170" cy="-145" rx="62" ry="190" transform="rotate(290 -170 -145)"/><ellipse cx="-80" cy="-195" rx="62" ry="190" transform="rotate(325 -80 -195)"/></g><circle cx="0" cy="0" r="155" fill="#b97b1d" stroke="#70470e" stroke-width="14"/><g fill="none" stroke="#e2b75a" stroke-width="7"><path d="M-120 -100 Q -60 0 -120 100"/><path d="M-100 -100 Q -50 0 -100 100"/><path d="M-80 -100 Q -40 0 -80 100"/><path d="M-60 -100 Q -30 0 -60 100"/><path d="M-40 -100 Q -20 0 -40 100"/><path d="M-20 -100 Q -10 0 -20 100"/><path d="M0 -100 Q 0 0 0 100"/><path d="M20 -100 Q 10 0 20 100"/><path d="M40 -100 Q 20 0 40 100"/><path d="M60 -100 Q 30 0 60 100"/><path d="M80 -100 Q 40 0 80 100"/><path d="M100 -100 Q 50 0 100 100"/><path d="M120 -100 Q 60 0 120 100"/></g><g transform="translate(95 -35) rotate(-15)"><ellipse cx="0" cy="0" rx="42" ry="24" fill="#4f3310"/><path d="M-25-5 L25-5 M-25 8 L25 8" stroke="#e8c568" stroke-width="8"/><ellipse cx="-18" cy="-24" rx="24" ry="12" fill="#d9edf2" opacity=".8"/><ellipse cx="18" cy="-24" rx="24" ry="12" fill="#d9edf2" opacity=".8"/></g><text x="0" y="-425" text-anchor="middle" font-size="82" font-family="Georgia" fill="#5b3a0d" letter-spacing="18">LIBERTY</text><text x="-300" y="-20" text-anchor="middle" font-size="70" font-family="Georgia" fill="#5b3a0d">20</text><text x="300" y="-20" text-anchor="middle" font-size="70" font-family="Georgia" fill="#5b3a0d">25</text><text x="0" y="390" text-anchor="middle" font-size="46" font-family="Georgia" fill="#5b3a0d" letter-spacing="4">IN GOD WE TRUST</text><text x="-260" y="300" font-size="28" font-family="Georgia" fill="#5b3a0d">CRP</text><text x="250" y="300" font-size="28" font-family="Georgia" fill="#5b3a0d">JPM</text></g></svg>